<svg width="332" height="100" viewBox="0 0 332 100" fill="none" xmlns="http://www.w3.org/2000/svg">
<path d="M80.9751 84.5C74.5024 84.5 68.8496 82.9915 64.0166 79.9746C59.27 76.8714 55.559 72.6908 52.8836 67.4326C50.2945 62.1745 49 56.2267 49 49.5894C49 45.6243 49.4747 41.8746 50.424 38.3404C51.3733 34.8063 52.7542 31.6169 54.5665 28.7724C56.4652 25.8416 58.709 23.3418 61.2981 21.273C63.9735 19.2043 66.9509 17.6096 70.2304 16.489C73.5962 15.2822 77.2209 14.6788 81.1046 14.6788C86.2827 14.6788 90.8568 15.5839 94.8267 17.3941C98.8829 19.1181 102.206 21.6178 104.795 24.8934C107.384 28.169 109.023 32.1341 109.714 36.7889H97.6747C97.0705 34.1167 95.9918 31.8755 94.4383 30.0653C92.8849 28.169 90.9431 26.7467 88.6129 25.7985C86.369 24.8503 83.8231 24.3762 80.9751 24.3762C78.2134 24.3762 75.7538 24.8072 73.5962 25.6692C71.4387 26.5312 69.5832 27.738 68.0297 29.2895C66.4763 30.7549 65.1817 32.5651 64.1461 34.7201C63.1105 36.7889 62.3337 39.0731 61.8159 41.5729C61.2981 44.0727 61.0392 46.7017 61.0392 49.4601C61.0392 54.1149 61.7296 58.3817 63.1105 62.2607C64.5776 66.0534 66.7783 69.1135 69.7126 71.4408C72.6469 73.682 76.4011 74.8026 80.9751 74.8026C85.2902 74.8026 88.8286 73.8544 91.5903 71.9581C94.352 69.9755 96.337 67.0016 97.5452 63.0365H109.584C108.808 67.2602 107.168 71.0099 104.665 74.2854C102.162 77.4748 98.926 79.9746 94.9561 81.7847C90.9862 83.5949 86.3259 84.5 80.9751 84.5Z" fill="black"/>
<path d="M116.67 82.8191V0H128.45V31.6169L127.415 30.3239C128.623 26.876 130.349 24.0314 132.593 21.7902C134.837 19.4629 137.469 17.6958 140.489 16.489C143.51 15.2822 146.79 14.6788 150.328 14.6788C154.902 14.6788 158.958 15.6701 162.497 17.6527C166.035 19.6353 168.797 22.6091 170.782 26.5743C172.767 30.5394 173.759 35.4959 173.759 41.4436V82.8191H161.979V42.2194C161.979 36.4441 160.555 32.091 157.707 29.1602C154.859 26.1433 151.148 24.6348 146.574 24.6348C143.381 24.6348 140.403 25.4968 137.642 27.2208C134.88 28.9448 132.636 31.3152 130.91 34.3322C129.27 37.263 128.45 40.7109 128.45 44.6761V82.8191H116.67Z" fill="black"/>
<path d="M202.764 84.5C196.032 84.5 190.682 82.6898 186.712 79.0695C182.742 75.4491 180.757 70.7082 180.757 64.8466C180.757 61.1401 181.62 57.9507 183.346 55.2785C185.072 52.5202 187.618 50.2359 190.984 48.4257C194.436 46.6155 198.621 45.3657 203.541 44.6761L218.557 42.478C221.492 42.047 223.347 41.2281 224.124 40.0213C224.987 38.8145 225.418 37.3923 225.418 35.7545V35.6252C225.418 33.384 224.9 31.4014 223.865 29.6774C222.829 27.9535 221.233 26.6174 219.075 25.6692C217.004 24.6348 214.328 24.1176 211.049 24.1176C206.13 24.1176 202.376 24.9796 199.786 26.7036C197.197 28.3414 195.558 30.7549 194.867 33.9443H183.087C183.518 30.0653 184.942 26.7036 187.359 23.859C189.775 20.9282 192.969 18.6871 196.938 17.1355C200.995 15.4977 205.698 14.6788 211.049 14.6788C216.917 14.6788 221.794 15.627 225.677 17.5234C229.561 19.3336 232.452 21.9195 234.351 25.2813C236.249 28.6431 237.199 32.6082 237.199 37.1768V82.8191H226.066V67.174L227.36 67.9498C225.72 72.3459 223.606 75.7508 221.017 78.1644C218.514 80.4917 215.709 82.1295 212.602 83.0777C209.495 84.0259 206.216 84.5 202.764 84.5ZM205.871 75.0612C208.891 75.0612 211.567 74.544 213.897 73.5096C216.313 72.4752 218.385 71.0099 220.111 69.1135C221.837 67.2171 223.131 64.9328 223.994 62.2607C224.944 59.5885 225.418 56.6577 225.418 53.4684V45.3226L228.396 47.9085C226.756 48.7705 225.203 49.417 223.735 49.848C222.355 50.1928 220.672 50.5376 218.687 50.8824L205.482 53.0805C201.599 53.6839 198.492 54.8907 196.162 56.7008C193.918 58.511 192.796 61.0539 192.796 64.3294C192.796 67.605 193.961 70.2341 196.291 72.2166C198.708 74.113 201.901 75.0612 205.871 75.0612Z" fill="black"/>
<path d="M247.53 82.8191V16.3597H259.31V34.9787L258.145 34.7201C259.526 29.8929 261.209 26.1433 263.194 23.4711C265.178 20.799 267.466 18.9457 270.055 17.9113C272.73 16.8769 275.664 16.3597 278.857 16.3597H283V27.9966H277.951C274.068 27.9966 270.702 28.9017 267.854 30.7118C265.092 32.4358 262.978 34.9356 261.511 38.2111C260.044 41.4867 259.31 45.4088 259.31 49.9773V82.8191H247.53Z" fill="black"/>
<path d="M29 14.2244C29 19.4094 26.384 24.1462 23.1238 28.1781C18.3203 34.1185 15.4011 41.7177 15.4011 50C15.4011 58.2822 18.3204 65.8811 23.1239 71.8213C26.3841 75.8531 29 80.5898 29 85.7748V100H9.83051V83.4255C9.83051 77.9893 7.17921 72.8946 2.72686 69.7754L0 67.865V31.6804L2.72685 29.7701C7.17921 26.6508 9.83051 21.5562 9.83051 16.1199V0H29V14.2244Z" fill="black"/>
<path d="M303 14.2244C303 19.4094 305.616 24.1462 308.876 28.1781C313.68 34.1185 316.599 41.7177 316.599 50C316.599 58.2822 313.68 65.8811 308.876 71.8213C305.616 75.8531 303 80.5898 303 85.7748V100H322.169V83.4255C322.169 77.9893 324.821 72.8946 329.273 69.7754L332 67.865V31.6804L329.273 29.7701C324.821 26.6508 322.169 21.5562 322.169 16.1199V0H303V14.2244Z" fill="black"/>
</svg>
