<svg width="280" height="280" viewBox="0 0 280 280" fill="none" xmlns="http://www.w3.org/2000/svg">
    <path d="M78.5047 233C74.7714 233 71.7714 232 69.5047 230C67.1047 228 65.9047 225.4 65.9047 222.2C65.9047 219.533 66.7047 217.133 68.3047 215C69.9047 212.867 72.1047 211.8 74.9047 211.8C77.3047 211.8 78.9714 212.467 79.9047 213.8C80.838 215.133 81.5047 216.667 81.9047 218.4C82.1714 220.133 82.638 221.667 83.3047 223C83.838 224.333 84.9714 225 86.7047 225C89.238 225 91.5714 223.533 93.7047 220.6C95.7047 217.667 97.3047 213.533 98.5047 208.2L132.905 59.2C133.571 56.4 133.571 54.5333 132.905 53.6C132.238 52.6667 130.571 51.9333 127.905 51.4L123.905 50.6C122.171 50.2 121.305 49.4667 121.305 48.4C121.305 46.8 122.505 46 124.905 46H160.505C162.371 46 163.305 46.6667 163.305 48C163.305 49.4667 161.971 50.4 159.305 50.8L155.305 51.4C152.371 51.8 150.371 52.5333 149.305 53.6C148.238 54.5333 147.371 56.4 146.705 59.2L118.505 181.2C114.771 197.2 109.305 209.8 102.105 219C95.038 228.333 87.1714 233 78.5047 233ZM128.7 233C124.967 233 121.967 232 119.7 230C117.3 228 116.1 225.4 116.1 222.2C116.1 219.533 116.9 217.133 118.5 215C120.1 212.867 122.3 211.8 125.1 211.8C127.5 211.8 129.167 212.467 130.1 213.8C131.033 215.133 131.7 216.667 132.1 218.4C132.367 220.133 132.833 221.667 133.5 223C134.033 224.333 135.167 225 136.9 225C139.433 225 141.767 223.533 143.9 220.6C145.9 217.667 147.5 213.533 148.7 208.2L183.1 59.2C183.767 56.4 183.767 54.5333 183.1 53.6C182.433 52.6667 180.767 51.9333 178.1 51.4L174.1 50.6C172.367 50.2 171.5 49.4667 171.5 48.4C171.5 46.8 172.7 46 175.1 46H210.7C212.567 46 213.5 46.6667 213.5 48C213.5 49.4667 212.167 50.4 209.5 50.8L205.5 51.4C202.567 51.8 200.567 52.5333 199.5 53.6C198.433 54.5333 197.567 56.4 196.9 59.2L168.7 181.2C164.967 197.2 159.5 209.8 152.3 219C145.233 228.333 137.367 233 128.7 233Z" />
    <style>
        path { fill: #000; }
        @media (prefers-color-scheme: dark) {
            path { fill: #FFF; }
        }
    </style>
</svg>
